<svg width="24" height="25" viewBox="0 0 24 25" fill="none" xmlns="http://www.w3.org/2000/svg">
<g id="info-circle" clip-path="url(#clip0_563_37579)">
<path id="Vector" d="M12 0.875C5.58014 0.875 0.375 6.08202 0.375 12.5C0.375 18.9217 5.58014 24.125 12 24.125C18.4199 24.125 23.625 18.9217 23.625 12.5C23.625 6.08202 18.4199 0.875 12 0.875ZM12 6.03125C13.0873 6.03125 13.9688 6.91269 13.9688 8C13.9688 9.08731 13.0873 9.96875 12 9.96875C10.9127 9.96875 10.0312 9.08731 10.0312 8C10.0312 6.91269 10.9127 6.03125 12 6.03125ZM14.625 17.9375C14.625 18.2481 14.3731 18.5 14.0625 18.5H9.9375C9.62686 18.5 9.375 18.2481 9.375 17.9375V16.8125C9.375 16.5019 9.62686 16.25 9.9375 16.25H10.5V13.25H9.9375C9.62686 13.25 9.375 12.9981 9.375 12.6875V11.5625C9.375 11.2519 9.62686 11 9.9375 11H12.9375C13.2481 11 13.5 11.2519 13.5 11.5625V16.25H14.0625C14.3731 16.25 14.625 16.5019 14.625 16.8125V17.9375Z" fill="#3F4045"/>
</g>
<defs>
<clipPath id="clip0_563_37579">
<rect width="24" height="24" fill="white" transform="translate(0 0.5)"/>
</clipPath>
</defs>
</svg>
